<svg width="344" height="116" viewBox="0 0 344 116" fill="none" xmlns="http://www.w3.org/2000/svg">
<path d="M142.042 94H104.493V90.1914C105.6 90.0938 106.951 89.931 108.546 89.7031C110.174 89.4753 111.28 89.2311 111.866 88.9707C113.071 88.4824 113.933 87.8151 114.454 86.9688C114.975 86.1224 115.235 85.0482 115.235 83.7461V31.9883L91.4073 92.877H85.255C84.962 91.8027 84.2296 89.6706 83.0577 86.4805C81.9184 83.2904 80.9907 80.735 80.2745 78.8145L62.7452 31.207V73.3457C62.7452 77.3822 63.0056 80.4583 63.5265 82.5742C64.0798 84.6576 64.9588 86.1875 66.1632 87.1641C66.977 87.8477 68.4255 88.4987 70.5089 89.1172C72.6248 89.7357 74.1059 90.0938 74.9522 90.1914V94H45.1671V90.1914C45.9809 90.0938 47.2992 89.8822 49.1222 89.5566C50.9776 89.1986 52.4913 88.5964 53.6632 87.75C54.9653 86.8385 55.8442 85.3086 56.2999 83.1602C56.7556 80.9792 56.9835 77.8867 56.9835 73.8828V39.5566C56.9835 37.4733 56.7231 35.748 56.2022 34.3809C55.6814 32.9811 54.9002 31.8743 53.8585 31.0605C52.5564 30.0514 51.2218 29.4004 49.8546 29.1074C48.4874 28.8145 47.1039 28.6191 45.7042 28.5215V24.7129H77.589L94.6788 70.4648L109.083 33.3066C109.571 31.9395 110.043 30.3118 110.499 28.4238C110.955 26.5358 111.199 25.2988 111.232 24.7129H141.944V28.5215C140.903 28.5866 139.812 28.7168 138.673 28.9121C137.534 29.1074 136.443 29.3678 135.401 29.6934C134.132 30.1165 133.286 30.7839 132.862 31.6953C132.472 32.6068 132.276 33.6159 132.276 34.7227V83.7949C132.276 84.9668 132.472 85.9596 132.862 86.7734C133.286 87.5547 134.132 88.2383 135.401 88.8242C136.053 89.1172 137.11 89.3939 138.575 89.6543C140.073 89.9147 141.228 90.0938 142.042 90.1914V94Z" fill="#2B6728"/>
<path d="M204.444 92.9746C203.012 93.5931 201.319 94.1628 199.366 94.6836C197.413 95.2044 195.346 95.4648 193.165 95.4648C189.161 95.4648 186.215 94.8789 184.327 93.707C182.439 92.5026 181.153 90.7936 180.47 88.5801H180.177C179.07 89.6868 177.996 90.6309 176.954 91.4121C175.945 92.1934 174.855 92.8607 173.683 93.4141C172.153 94.1302 170.672 94.651 169.239 94.9766C167.84 95.3346 165.87 95.5137 163.331 95.5137C159.555 95.5137 156.332 94.4069 153.663 92.1934C150.994 89.9473 149.659 86.985 149.659 83.3066C149.659 81.1908 149.952 79.4004 150.538 77.9355C151.124 76.4382 151.954 75.1198 153.028 73.9805C154.005 72.9388 155.128 72.0762 156.398 71.3926C157.7 70.709 159.116 70.0742 160.646 69.4883C163.575 68.4141 167.091 67.3073 171.192 66.168C175.294 64.9961 178.289 63.9544 180.177 63.043V58.3555C180.177 57.5417 180.112 56.4674 179.982 55.1328C179.851 53.7982 179.575 52.6751 179.151 51.7637C178.696 50.722 177.98 49.8431 177.003 49.127C176.026 48.4108 174.741 48.0527 173.146 48.0527C171.713 48.0527 170.509 48.2643 169.532 48.6875C168.588 49.0781 167.823 49.485 167.237 49.9082C167.335 50.5592 167.612 51.5521 168.067 52.8867C168.523 54.2214 168.751 55.5072 168.751 56.7441C168.751 57.2975 168.605 57.9974 168.312 58.8438C168.019 59.6576 167.595 60.3086 167.042 60.7969C166.293 61.4479 165.447 61.9525 164.503 62.3105C163.592 62.6686 162.176 62.8477 160.255 62.8477C157.521 62.8477 155.454 62.1966 154.054 60.8945C152.654 59.5599 151.954 57.8346 151.954 55.7188C151.954 53.8958 152.67 52.2682 154.103 50.8359C155.567 49.3711 157.342 48.1667 159.425 47.2227C161.476 46.2461 163.836 45.4974 166.505 44.9766C169.174 44.4232 171.648 44.1465 173.927 44.1465C177.084 44.1465 179.982 44.3418 182.618 44.7324C185.255 45.0905 187.631 45.8555 189.747 47.0273C191.765 48.1667 193.36 49.8268 194.532 52.0078C195.737 54.1562 196.339 56.972 196.339 60.4551C196.339 64.1335 196.258 68.4954 196.095 73.541C195.965 78.5866 195.9 81.9069 195.9 83.502C195.9 84.9668 196.111 86.1224 196.534 86.9688C196.99 87.8151 197.674 88.4499 198.585 88.873C199.138 89.1335 200.001 89.2962 201.173 89.3613C202.377 89.3939 203.468 89.4102 204.444 89.4102V92.9746ZM180.177 67.5352C178.354 68.1536 176.547 68.8698 174.757 69.6836C172.967 70.4648 171.502 71.2949 170.362 72.1738C169.158 73.0853 168.214 74.2572 167.53 75.6895C166.847 77.0892 166.505 78.7493 166.505 80.6699C166.505 83.209 167.075 85.0482 168.214 86.1875C169.386 87.3268 170.818 87.8965 172.511 87.8965C174.301 87.8965 175.766 87.5384 176.905 86.8223C178.077 86.0736 179.103 85.1621 179.982 84.0879L180.177 67.5352Z" fill="#2B6728"/>
<path d="M270.851 94H247.853C245.021 89.0195 242.433 84.804 240.089 81.3535C237.745 77.8704 235.532 74.6478 233.448 71.6855L230.519 74.1758V84.8203C230.519 85.9922 230.681 86.9525 231.007 87.7012C231.365 88.4499 232.032 89.0033 233.009 89.3613C233.595 89.6217 234.278 89.8496 235.06 90.0449C235.841 90.2402 236.622 90.3704 237.403 90.4355V94H207.179V90.4355C207.993 90.3704 208.806 90.2891 209.62 90.1914C210.434 90.0612 211.15 89.8984 211.769 89.7031C212.81 89.3451 213.51 88.7917 213.868 88.043C214.259 87.2943 214.454 86.3177 214.454 85.1133V30.6699C214.454 29.5957 214.21 28.4889 213.722 27.3496C213.266 26.1777 212.582 25.2988 211.671 24.7129C211.053 24.3223 210.125 23.9967 208.888 23.7363C207.651 23.4759 206.528 23.3132 205.519 23.248V19.6836L229.786 18.4141L230.519 19.1953V69.5859C232.928 67.4375 235.629 64.9473 238.624 62.1152C241.651 59.2832 244.077 56.9395 245.9 55.084C246.974 53.9772 247.56 53.1471 247.657 52.5938C247.788 52.0078 247.853 51.6497 247.853 51.5195C247.853 50.9336 247.332 50.4453 246.29 50.0547C245.281 49.6641 243.751 49.3223 241.7 49.0293V45.5625H266.505V48.9316C263.25 49.8431 260.76 50.7057 259.034 51.5195C257.342 52.3008 255.486 53.3587 253.468 54.6934C252.133 55.5723 250.831 56.5 249.562 57.4766C248.325 58.4206 246.892 59.6087 245.265 61.041C248.455 65.6634 251.401 69.944 254.103 73.8828C256.804 77.8216 259.636 81.9883 262.599 86.3828C263.608 87.9128 264.861 88.9382 266.358 89.459C267.856 89.9798 269.353 90.3053 270.851 90.4355V94Z" fill="#2B6728"/>
<path d="M302.247 94H271.388V90.4355C272.234 90.3704 273.064 90.2891 273.878 90.1914C274.692 90.0938 275.392 89.931 275.978 89.7031C277.019 89.3125 277.752 88.7591 278.175 88.043C278.598 87.2943 278.81 86.3177 278.81 85.1133V56.6953C278.81 55.556 278.549 54.5632 278.028 53.7168C277.508 52.8379 276.857 52.138 276.075 51.6172C275.489 51.2266 274.594 50.8522 273.39 50.4941C272.218 50.1361 271.144 49.9082 270.167 49.8105V46.2461L294.093 44.9766L294.825 45.709V84.4785C294.825 85.6178 295.069 86.5944 295.558 87.4082C296.046 88.1895 296.746 88.7754 297.657 89.166C298.308 89.459 299.025 89.7194 299.806 89.9473C300.587 90.1751 301.401 90.3379 302.247 90.4355V94ZM295.118 27.3984C295.118 29.8724 294.158 31.9883 292.237 33.7461C290.349 35.4714 288.103 36.334 285.499 36.334C282.862 36.334 280.584 35.4714 278.663 33.7461C276.775 31.9883 275.831 29.8724 275.831 27.3984C275.831 24.9245 276.775 22.8086 278.663 21.0508C280.584 19.293 282.862 18.4141 285.499 18.4141C288.136 18.4141 290.398 19.293 292.286 21.0508C294.174 22.8086 295.118 24.9245 295.118 27.3984Z" fill="#2B6728"/>
<path d="M0.134949 112.759V0.427612H29.0653V10.8637H12.7287V102.323H29.0653V112.759H0.134949Z" fill="#2B6728"/>
<path d="M343.633 0.427612V112.759H314.703V102.323H331.04V10.8637H314.703V0.427612H343.633Z" fill="#2B6728"/>
</svg>
